<?xml version="1.0" encoding="UTF-8"?>
<svg version="1.1" xmlns="http://www.w3.org/2000/svg" width="1772" height="1772">
<path d="M0 0 C24.42 0 48.84 0 74 0 C74 289.74 74 579.48 74 878 C50.57 878 27.14 878 3 878 C-5.03011225 850.46818658 -5.03011225 850.46818658 -8.35546875 837.8515625 C-8.73815525 836.40928479 -9.12114647 834.96708791 -9.50440979 833.52496338 C-10.31421719 830.47616534 -11.12244325 827.42695498 -11.92932129 824.37738037 C-13.90390824 816.91585154 -15.88866927 809.45702537 -17.87316513 801.99812698 C-18.3310885 800.27697624 -18.78892556 798.55580254 -19.2466774 796.83460617 C-23.8341344 779.58705163 -28.47617767 762.35451889 -33.14016724 745.12752151 C-33.75420969 742.85945079 -34.36809602 740.59133786 -34.98193359 738.32321167 C-36.66592556 732.10091824 -38.35001214 725.87865044 -40.03445435 719.65647888 C-45.01105128 701.27173943 -49.97197917 682.88277422 -54.93089676 664.49325943 C-55.6892331 661.68107304 -56.44762841 658.86890255 -57.20602417 656.05673218 C-65.18383556 626.47319137 -73.1404563 596.88398186 -81.09014511 567.29287338 C-89.81601886 534.81295923 -98.57260022 502.34142247 -107.34459305 469.8739357 C-118.62647558 428.11616064 -129.86642175 386.34718487 -141.08453369 344.57223511 C-144.71715037 331.04656668 -148.3590726 317.52344462 -152 304 C-152.33 493.75 -152.66 683.5 -153 879 C-177.42 879 -201.84 879 -227 879 C-227 589.26 -227 299.52 -227 1 C-203.9 1 -180.8 1 -157 1 C-154.99429711 6.34854103 -153.21183857 11.48354074 -151.76123047 16.96948242 C-151.55654679 17.73044346 -151.35186312 18.4914045 -151.14097691 19.27542496 C-150.46261885 21.80111457 -149.78991478 24.32827407 -149.1171875 26.85546875 C-148.63032477 28.67254503 -148.14309701 30.48952355 -147.65553284 32.30641174 C-146.60821452 36.21216735 -145.56337512 40.11857445 -144.52047729 44.0255127 C-142.85103962 50.27946803 -141.17606816 56.53193309 -139.50024414 62.78417969 C-137.4552506 70.41513421 -135.41151169 78.04642246 -133.36946964 85.67816734 C-128.25557007 104.78997789 -123.12093521 123.89619896 -117.98321533 143.00161743 C-116.68622063 147.82476638 -115.38969052 152.64804007 -114.09331131 157.47135448 C-106.24960083 186.65439838 -98.38596988 215.83204251 -90.51400757 245.00747681 C-82.47534663 274.8011914 -74.45980324 304.60107154 -66.45318604 334.40341187 C-58.92979383 362.406444 -51.38521208 390.40361059 -43.81124878 418.39300537 C-38.69785475 437.29022446 -33.60014087 456.19159433 -28.51953125 475.09765625 C-28.24135433 476.13277721 -27.96317741 477.16789818 -27.67657089 478.23438644 C-24.92850504 488.46068382 -22.18144229 498.68724993 -19.43640614 508.914361 C-18.41448933 512.72128048 -17.39207992 516.52806758 -16.36960411 520.33483696 C-15.90379366 522.06961012 -15.43820966 523.80444411 -14.97290993 525.53935432 C-10.36840086 542.70760932 -5.67699746 559.85100931 -1 577 C-0.67 386.59 -0.34 196.18 0 0 Z " fill="#060606" transform="translate(1253,447)"/>
<path d="M0 0 C24.09 0 48.18 0 73 0 C78.53106032 9.83299612 83.99935594 19.64737631 89.2565918 29.62207031 C91.09954967 33.11793769 92.94988179 36.60989484 94.80078125 40.1015625 C95.16559601 40.78986145 95.53041077 41.4781604 95.90628052 42.18731689 C98.8935984 47.81579331 101.93273989 53.4146797 105 59 C109.87067328 67.87529873 114.63378825 76.80513956 119.375 85.75 C125.15687074 96.65789705 130.96958824 107.5479235 136.83154297 118.41308594 C141.06899681 126.26758288 145.28861923 134.13150283 149.5 142 C154.32106163 151.00663802 159.15347963 160.00703499 164 169 C170.72407826 181.47796402 177.41919411 193.9713509 184.10888672 206.46777344 C185.98994062 209.9814516 187.8718354 213.49467894 189.75390625 217.0078125 C190.37257568 218.16265137 190.99124512 219.31749023 191.62866211 220.50732422 C192.87278447 222.82936133 194.11708686 225.15130198 195.36157227 227.47314453 C198.23348747 232.8319977 201.10361566 238.19175763 203.96539307 243.55603027 C205.2843794 246.02806829 206.60467263 248.49940725 207.92504883 250.97070312 C208.83084638 252.66729849 209.73480642 254.36487451 210.63867188 256.0625 C215.30117318 264.78690922 220.14655126 273.37164669 225 282 C225.495 143.4 225.495 143.4 226 2 C250.42 2 274.84 2 300 2 C300 147.2 300 292.4 300 442 C275.58 442 251.16 442 226 442 C220.13444062 431.44199312 214.29986385 420.90553388 208.66796875 410.22705078 C206.83804393 406.75824667 205.00145903 403.29297594 203.1640625 399.828125 C202.62147797 398.80495178 202.62147797 398.80495178 202.06793213 397.7611084 C199.08834022 392.15031917 196.05763271 386.56864952 193 381 C188.12938976 372.12466579 183.36621235 363.19486156 178.625 354.25 C172.84312926 343.34210295 167.03041176 332.4520765 161.16845703 321.58691406 C156.93100319 313.73241712 152.71138077 305.86849717 148.5 298 C143.67893837 288.99336198 138.84652037 279.99296501 134 271 C127.27592174 258.52203598 120.58080589 246.0286491 113.89111328 233.53222656 C110.76209039 227.68742892 107.63086194 221.84381265 104.5 216 C103.2591101 213.68359615 102.01822469 211.3671899 100.77734375 209.05078125 C98.52145998 204.83975897 96.26532339 200.62887243 94.00881958 196.41818237 C92.67914514 193.93694987 91.34957884 191.45565943 90.02001953 188.97436523 C89.10459626 187.26605751 88.18902055 185.55783147 87.2734375 183.84960938 C82.83816601 175.57209708 78.41926773 167.28612699 74 159 C73.67 396.27 73.34 633.54 73 878 C48.91 878 24.82 878 0 878 C0 588.26 0 298.52 0 0 Z " fill="#050505" transform="translate(403,446)"/>
<path d="M0 0 C1.14525146 0.00563965 2.29050293 0.0112793 3.47045898 0.01708984 C12.09686797 0.14049007 19.93747708 0.85399713 28.25 3.3125 C28.92289063 3.51117676 29.59578125 3.70985352 30.2890625 3.91455078 C57.80777693 12.26397891 79.74659601 30.70565643 93.46777344 56.01318359 C100.44555338 69.44392465 104.43993101 84.19518306 104.36352539 99.35913086 C104.36367142 100.13068512 104.36381744 100.90223938 104.3639679 101.69717407 C104.36327638 104.22392683 104.35551994 106.75060402 104.34765625 109.27734375 C104.34578936 111.03853821 104.34436674 112.79973318 104.34336853 114.56092834 C104.33956467 119.17881727 104.32975273 123.79667436 104.31866455 128.41455078 C104.30659806 133.9646565 104.30203804 139.5147729 104.29621124 145.064888 C104.28653972 153.48078076 104.26736828 161.89660376 104.25 170.3125 C80.16 170.3125 56.07 170.3125 31.25 170.3125 C31 134.375 31 134.375 30.95214844 123.07446289 C30.91888276 119.69893836 30.91888276 119.69893836 30.88043213 116.32347107 C30.86592512 114.83308585 30.8590507 113.3426133 30.85845947 111.85215759 C30.84569393 99.97218167 29.59056074 91.1111173 21.25 82.10546875 C14.40406901 75.96819859 7.26819777 73.91892403 -1.7421875 74.0390625 C-10.66788818 74.85048983 -17.85775488 78.64322314 -23.75 85.3125 C-29.86057807 93.7058891 -29.45701296 102.71658657 -29.38923645 112.61172485 C-29.39555388 114.36927967 -29.40406027 116.12682775 -29.41455668 117.88436258 C-29.43699967 122.69619193 -29.42852066 127.50753996 -29.4148711 132.31938386 C-29.40559264 137.51493593 -29.42516308 142.71038984 -29.44119263 147.90591431 C-29.46501563 156.9016035 -29.4706456 165.89715569 -29.46384621 174.89287186 C-29.45404191 187.89906477 -29.471788 200.90510589 -29.49621352 213.91127424 C-29.53509803 235.01393228 -29.55176576 256.11654687 -29.55444336 277.21923828 C-29.5570917 297.71600574 -29.57021486 318.21272244 -29.59741211 338.70947266 C-29.59908549 339.97333155 -29.60075887 341.23719044 -29.60248295 342.53934808 C-29.61094255 348.87988819 -29.61960794 355.220428 -29.62837565 361.56096768 C-29.70082252 414.14482167 -29.73310946 466.72859306 -29.75 519.3125 C14.47 519.3125 58.69 519.3125 104.25 519.3125 C104.25 543.4025 104.25 567.4925 104.25 592.3125 C60.03 592.3125 15.81 592.3125 -29.75 592.3125 C-29.75 687.3525 -29.75 782.3925 -29.75 880.3125 C-54.17 880.3125 -78.59 880.3125 -103.75 880.3125 C-103.75 785.2725 -103.75 690.2325 -103.75 592.3125 C-145.99 592.3125 -188.23 592.3125 -231.75 592.3125 C-231.75 568.2225 -231.75 544.1325 -231.75 519.3125 C-189.51 519.3125 -147.27 519.3125 -103.75 519.3125 C-103.7814209 500.11239746 -103.7814209 500.11239746 -103.81347656 480.52441406 C-103.87773664 439.5243417 -103.92219564 398.52426912 -103.95426132 357.52415945 C-103.95926388 351.1508718 -103.96444119 344.7775843 -103.96972656 338.40429688 C-103.9707758 337.13554119 -103.97182505 335.86678551 -103.97290608 334.55958268 C-103.99029025 314.04184859 -104.02181696 293.52415953 -104.05861118 273.00645211 C-104.09607597 251.93840715 -104.11824755 230.8703857 -104.12635398 209.8023088 C-104.13183026 196.81220754 -104.14909889 183.82223358 -104.18166587 170.83217153 C-104.20288216 161.91283251 -104.20918399 152.99355888 -104.20400551 144.07419649 C-104.20145478 138.93555544 -104.20524161 133.79713617 -104.2268219 128.658535 C-104.24649164 123.94002695 -104.2471397 119.22188681 -104.23359558 114.50336072 C-104.23192519 112.80987266 -104.23682501 111.11636027 -104.24953273 109.42291906 C-104.46081098 79.49047884 -94.92119169 53.43968604 -74.75 31.3125 C-74.16734375 30.64734375 -73.5846875 29.9821875 -72.984375 29.296875 C-54.76527341 9.60552277 -26.23273649 -0.13583043 0 0 Z " fill="#070707" transform="translate(860.75,445.6875)"/>
<path d="M0 0 C24.42 0 48.84 0 74 0 C74 290.4 74 580.8 74 880 C49.58 880 25.16 880 0 880 C0 589.6 0 299.2 0 0 Z " fill="#070707" transform="translate(268,446)"/>
<path d="M0 0 C24.42 0 48.84 0 74 0 C74 248.16 74 496.32 74 752 C49.58 752 25.16 752 0 752 C0 503.84 0 255.68 0 0 Z " fill="#070707" transform="translate(1381,574)"/>
<path d="M0 0 C24.09 0 48.18 0 73 0 C73 79.53 73 159.06 73 241 C48.91 241 24.82 241 0 241 C0 161.47 0 81.94 0 0 Z " fill="#070707" transform="translate(892,672)"/>
<path d="M0 0 C12.54 0 25.08 0 38 0 C41.91803761 13.34250645 45.59875138 26.74287653 49.17001343 40.1819458 C49.68182289 42.1028848 50.19698351 44.02293404 50.71548462 45.94207764 C51.45387051 48.67902643 52.17961633 51.419037 52.90234375 54.16015625 C53.12910797 54.99169724 53.35587219 55.82323822 53.58950806 56.67997742 C53.79063202 57.45339981 53.99175598 58.2268222 54.19897461 59.02368164 C54.37851181 59.69758438 54.55804901 60.37148712 54.74302673 61.06581116 C55.03918518 63.29493942 54.66906788 64.86959536 54 67 C48.78688808 60.87093944 43.57933722 54.74085535 38.5 48.5 C35.2117626 44.46016548 31.87268539 40.46916723 28.5 36.5 C23.59451797 30.72454679 18.78131043 24.87879983 14 19 C12.4173693 17.06192602 10.83404103 15.12442145 9.25 13.1875 C8.14591797 11.83398438 8.14591797 11.83398438 7.01953125 10.453125 C5.34972733 8.42481386 3.65225175 6.42757808 1.9375 4.4375 C0 2 0 2 0 0 Z " fill="#252525" transform="translate(1361,476)"/>
<path d="M0 0 C1.60279192 0.00015914 3.20558896 0.00585476 4.80834961 0.01586914 C5.65038437 0.01728409 6.49241913 0.01869904 7.35997009 0.02015686 C10.06024671 0.02577276 12.76044163 0.03832791 15.46069336 0.05102539 C17.28686404 0.05603834 19.11303602 0.06060161 20.93920898 0.06469727 C25.42556878 0.07574735 29.9118672 0.0930226 34.39819336 0.11352539 C32.70388741 3.03015648 31.02072123 5.73993997 28.79663086 8.27758789 C28.06827026 9.11616333 28.06827026 9.11616333 27.32519531 9.97167969 C26.81303467 10.55473877 26.30087402 11.13779785 25.77319336 11.73852539 C24.69020386 12.98639231 23.60818141 14.23509913 22.52709961 15.48461914 C21.99487793 16.09934082 21.46265625 16.7140625 20.91430664 17.34741211 C17.32272406 21.53122988 13.86946334 25.82996555 10.39819336 30.11352539 C5.16706463 36.55111264 -0.11866815 42.93478538 -5.49560547 49.25073242 C-9.35379288 53.79177884 -13.10437716 58.41149791 -16.82446289 63.06665039 C-18.60180664 65.11352539 -18.60180664 65.11352539 -20.60180664 66.11352539 C-19.93353379 58.82475413 -18.13644603 51.96083069 -16.25805664 44.89868164 C-15.92890259 43.64719833 -15.59974854 42.39571503 -15.26062012 41.10630798 C-14.56786724 38.4739719 -13.8715963 35.84260093 -13.17260742 33.21191406 C-12.27555715 29.83509691 -11.38626617 26.4562944 -10.49939728 23.07679081 C-9.65171195 19.84980187 -8.79849118 16.62428725 -7.94555664 13.39868164 C-7.62574829 12.18213394 -7.30593994 10.96558624 -6.97644043 9.71217346 C-6.67943237 8.59688766 -6.38242432 7.48160187 -6.07641602 6.33251953 C-5.68456116 4.85314659 -5.68456116 4.85314659 -5.28479004 3.34388733 C-4.17460432 -0.28155361 -4.08673437 0.12880983 0 0 Z " fill="#252525" transform="translate(1443.601806640625,475.886474609375)"/>
<path d="M0 0 C11.55 0 23.1 0 35 0 C30.34536374 19.7822041 30.34536374 19.7822041 28.0546875 28.65234375 C27.7987381 29.64456436 27.5427887 30.63678497 27.27908325 31.65907288 C26.74755495 33.71497984 26.21491486 35.77059969 25.68115234 37.82592773 C24.86314235 40.98326795 24.0546932 44.14297279 23.24609375 47.30273438 C22.72454386 49.315256 22.20243016 51.32763161 21.6796875 53.33984375 C21.44007294 54.2823851 21.20045837 55.22492645 20.95358276 56.19602966 C20.72639557 57.06196243 20.49920837 57.9278952 20.26513672 58.82006836 C20.06846405 59.58153671 19.87179138 60.34300507 19.66915894 61.12754822 C19 63 19 63 17 65 C14.31344944 58.29658614 12.44203066 51.50070752 10.64453125 44.51171875 C10.33803146 43.33156693 10.03153168 42.1514151 9.71574402 40.9355011 C9.07246536 38.45421006 8.4313344 35.97236134 7.79223633 33.48999023 C6.81087484 29.68119254 5.82095535 25.87469125 4.83007812 22.06835938 C4.20521906 19.65377779 3.58085272 17.23906862 2.95703125 14.82421875 C2.6602095 13.68361496 2.36338776 12.54301117 2.05757141 11.36784363 C1.78696396 10.31277115 1.51635651 9.25769867 1.23754883 8.1706543 C0.99788895 7.24214157 0.75822906 6.31362885 0.51130676 5.35697937 C0 3 0 3 0 0 Z " fill="#272727" transform="translate(1402,476)"/>
<path d="M0 0 C6.30012948 4.9596764 11.02946239 10.73805168 16 17 C17.01636613 18.21209325 18.03617809 19.42132501 19.0625 20.625 C21 23 21 23 21 24 C9.12 24 -2.76 24 -15 24 C-13.53054385 20.32635963 -12.3543799 17.78657376 -10.21484375 14.609375 C-9.68439453 13.81789063 -9.15394531 13.02640625 -8.60742188 12.2109375 C-8.05634766 11.39882813 -7.50527344 10.58671875 -6.9375 9.75 C-6.10508789 8.50863281 -6.10508789 8.50863281 -5.25585938 7.2421875 C-1.16870301 1.16870301 -1.16870301 1.16870301 0 0 Z " fill="#3B3B3B" transform="translate(1457,449)"/>
<path d="M0 0 C0.66 0 1.32 0 2 0 C3.60400391 2.09545898 3.60400391 2.09545898 5.4765625 4.99609375 C6.146875 6.02927734 6.8171875 7.06246094 7.5078125 8.12695312 C8.20648437 9.21943359 8.90515625 10.31191406 9.625 11.4375 C10.33140625 12.52611328 11.0378125 13.61472656 11.765625 14.73632812 C17 22.84556739 17 22.84556739 17 24 C5.12 24 -6.76 24 -19 24 C-17.43559179 20.87118357 -16.32929256 19.02483296 -14.1015625 16.50390625 C-13.53953125 15.86259766 -12.9775 15.22128906 -12.3984375 14.56054688 C-11.81320312 13.90119141 -11.22796875 13.24183594 -10.625 12.5625 C-9.47048172 11.25207021 -8.3168168 9.94088803 -7.1640625 8.62890625 C-6.34470215 7.70102295 -6.34470215 7.70102295 -5.50878906 6.75439453 C-4.19085657 5.22192481 -2.94412248 3.62880069 -1.7109375 2.02734375 C-1.14632813 1.35832031 -0.58171875 0.68929688 0 0 Z " fill="#282828" transform="translate(1380,449)"/>
<path d="M0 0 C10.56 0 21.12 0 32 0 C30.3242127 4.18946825 28.68766718 7.19406552 26.1875 10.875 C25.47980469 11.91914063 24.77210937 12.96328125 24.04296875 14.0390625 C21.7322513 17.38805643 19.39312295 20.70945594 17 24 C13.35797453 22.54398113 11.86793058 20.77054062 9.765625 17.5 C9.19199219 16.613125 8.61835937 15.72625 8.02734375 14.8125 C7.44082031 13.884375 6.85429688 12.95625 6.25 12 C5.64800781 11.071875 5.04601563 10.14375 4.42578125 9.1875 C0 2.28287982 0 2.28287982 0 0 Z " fill="#3D3D3D" transform="translate(1384,447)"/>
<path d="M0 0 C10.56 0 21.12 0 32 0 C31.06608831 3.73564676 30.13197533 5.62535775 28.05859375 8.765625 C27.18364258 10.09980469 27.18364258 10.09980469 26.29101562 11.4609375 C25.37352539 12.84152344 25.37352539 12.84152344 24.4375 14.25 C23.82197266 15.18585938 23.20644531 16.12171875 22.57226562 17.0859375 C21.05318579 19.39399678 19.52895875 21.69847801 18 24 C14.25010178 22.52272072 12.73325995 20.58204379 10.546875 17.24609375 C9.928125 16.30958984 9.309375 15.37308594 8.671875 14.40820312 C8.03765625 13.42787109 7.4034375 12.44753906 6.75 11.4375 C6.1003125 10.45330078 5.450625 9.46910156 4.78125 8.45507812 C0 1.16768973 0 1.16768973 0 0 Z " fill="#3B3B3B" transform="translate(1422,447)"/>
<path d="M0 0 C3.40952776 1.40910034 4.93934164 2.92086764 6.9453125 5.9921875 C7.72455078 7.17361328 7.72455078 7.17361328 8.51953125 8.37890625 C9.04933594 9.20261719 9.57914063 10.02632813 10.125 10.875 C10.66253906 11.69097656 11.20007812 12.50695312 11.75390625 13.34765625 C14.04645084 16.85221943 16.12251569 20.24503139 18 24 C7.11 24 -3.78 24 -15 24 C-13.30933374 19.77333435 -11.86724747 17.22804589 -9.1875 13.6875 C-5.87987701 9.24118713 -2.8633851 4.74248157 0 0 Z " fill="#3F3F3F" transform="translate(1418,449)"/>
<path d="M0 0 C3.21203935 2.49825283 6.17493137 5.0702992 9 8 C9.33 6.68 9.66 5.36 10 4 C12.27678571 10.96428571 12.27678571 10.96428571 11 15 C9.16064138 12.87996003 7.32843267 10.75442773 5.5 8.625 C4.71302734 7.72007812 4.71302734 7.72007812 3.91015625 6.796875 C0 2.2265625 0 2.2265625 0 0 Z " fill="#FEFEFE" transform="translate(1404,528)"/>
<path d="M0 0 C1.51553092 3.97450493 0.49888623 7.20481149 -0.4375 11.25 C-0.72496094 12.51328125 -1.01242187 13.7765625 -1.30859375 15.078125 C-1.53675781 16.04234375 -1.76492188 17.0065625 -2 18 C-1.34 17.67 -0.68 17.34 0 17 C-1.36983503 20.16115776 -1.9890638 20.9927092 -5 23 C-4.354523 15.09290669 -2.13002861 7.60866033 0 0 Z " fill="#FEFEFE" transform="translate(1428,519)"/>
<path d="" fill="#FFFFFF" transform="translate(0,0)"/>
</svg>
