<?xml version="1.0" encoding="iso-8859-1"?>
<!-- Uploaded to: SVG Repo, www.svgrepo.com, Generator: SVG Repo Mixer Tools -->
<svg fill="#000000" height="800px" width="800px" version="1.1" id="Layer_1" xmlns="http://www.w3.org/2000/svg" xmlns:xlink="http://www.w3.org/1999/xlink" 
	 viewBox="0 0 512.005 512.005" xml:space="preserve">
<g>
	<g>
		<g>
			<path d="M341.336,119.472c-13.943,0-26.342,6.724-34.133,17.092c-7.791-10.368-20.19-17.092-34.133-17.092
				c-4.71,0-8.533,3.823-8.533,8.533s3.823,8.533,8.533,8.533c14.114,0,25.6,11.486,25.6,25.6c0,4.71,3.823,8.533,8.533,8.533
				s8.533-3.823,8.533-8.533c0-14.114,11.486-25.6,25.6-25.6c4.71,0,8.533-3.823,8.533-8.533S346.047,119.472,341.336,119.472z"/>
			<path d="M412.402,57.247c-2.445-2.838-5.119-4.688-7.976-5.526L329.003,1.439c-0.026-0.018-0.055-0.03-0.081-0.048
				c-0.228-0.149-0.462-0.286-0.703-0.411c-0.034-0.018-0.067-0.038-0.101-0.055c-0.573-0.29-1.174-0.514-1.795-0.668
				c-0.011-0.003-0.023-0.005-0.034-0.007c-0.287-0.07-0.578-0.124-0.871-0.164c-0.051-0.007-0.102-0.012-0.153-0.018
				c-0.259-0.031-0.52-0.05-0.782-0.056c-0.057-0.001-0.114-0.003-0.171-0.003c-0.266-0.002-0.532,0.01-0.799,0.034
				c-0.045,0.004-0.091,0.006-0.136,0.011c-0.308,0.032-0.614,0.079-0.92,0.146c-0.001,0-0.003,0-0.004,0.001
				c-0.319,0.07-0.636,0.157-0.95,0.266c0,0-0.001,0-0.001,0c-0.003,0.001-0.005,0.002-0.008,0.003
				c-0.278,0.096-0.552,0.209-0.823,0.336c-0.131,0.061-0.255,0.131-0.382,0.198c-0.104,0.055-0.21,0.102-0.312,0.162
				c-10.155,5.905-35.046,15.906-63.974,15.906c-28.937,0-53.828-10.001-63.974-15.906c-0.1-0.058-0.203-0.104-0.304-0.157
				c-0.133-0.07-0.263-0.144-0.4-0.207c-0.208-0.097-0.419-0.18-0.632-0.259c-0.063-0.023-0.122-0.054-0.186-0.076
				c-0.007-0.002-0.015-0.004-0.022-0.006c-2.201-0.755-4.569-0.551-6.576,0.458c-0.059,0.03-0.116,0.064-0.174,0.095
				c-0.21,0.112-0.416,0.231-0.617,0.361c-0.037,0.023-0.076,0.041-0.112,0.065l-75.42,50.28c-2.86,0.838-5.536,2.688-7.983,5.528
				c-28.962,33.69-58.624,265.071-44.962,412.877c0.297,3.185,2.322,5.822,5.095,7.032v17.783c0,9.412,7.654,17.067,17.067,17.067
				h25.6c9.412,0,17.067-7.654,17.067-17.067v-18.787c1.622-1.22,2.808-3.008,3.233-5.114c0.044-0.217,2.346-11.487,5.746-24.587
				l8.528,25.585c1.161,3.49,4.42,5.837,8.09,5.837h0.003v17.067c0,9.412,7.654,17.067,17.067,17.067H349.87
				c9.412,0,17.067-7.654,17.067-17.067v-17.067c3.677-0.001,6.935-2.347,8.096-5.837l8.526-25.578
				c3.399,13.097,5.7,24.363,5.744,24.58c0.425,2.107,1.612,3.895,3.234,5.115v18.787c0,9.412,7.654,17.067,17.067,17.067h25.6
				c9.412,0,17.067-7.654,17.067-17.067v-17.783c2.773-1.21,4.797-3.847,5.094-7.032C471.026,322.318,441.364,90.937,412.402,57.247
				z M306.766,25.549c-4.676,7.325-10.412,13.966-17.068,19.674L256.001,74.1l-33.69-28.877
				c-6.654-5.707-12.389-12.346-17.064-19.669c14.22,4.842,31.954,8.584,50.757,8.584C274.802,34.139,292.541,30.394,306.766,25.549
				z M76.803,494.939v-17.067h25.6l0.008,17.067H76.803z M107.445,460.805h-36.48c-13.053-159.605,21.337-364.12,40.102-390.77
				c14.833,11.22,16.697,28.858,16.908,32.097c-14.818,130.506-8.852,246.161-3.927,303.884
				C116.834,420.735,110.277,448.049,107.445,460.805z M162.137,494.939v-17.067H349.87v17.067H162.137z M360.79,460.805H151.22
				l-6.332-18.995c-1.553-11.947-20.087-161.271,0.128-338.441c0.043-0.393,0.06-0.785,0.051-1.178
				c-0.034-1.169-0.862-24.986-19.285-42.095l57.89-38.588c6.366,14.046,15.753,26.573,27.529,36.668l39.245,33.638
				c3.2,2.748,7.91,2.748,11.11,0l39.245-33.638c11.776-10.095,21.163-22.622,27.537-36.668l57.89,38.588
				c-18.423,17.109-19.26,40.926-19.285,42.095c-0.017,0.393,0,0.785,0.051,1.178c20.19,177.05,1.681,326.485,0.119,338.441
				L360.79,460.805z M387.96,406.021c4.922-57.721,10.885-173.377-3.933-303.88c0.227-3.339,2.119-20.916,16.911-32.107
				c18.765,26.644,53.157,231.163,40.103,390.771h-36.48C401.729,448.05,395.173,420.74,387.96,406.021z M409.603,494.939v-17.067
				h25.6v17.067H409.603z"/>
		</g>
	</g>
</g>
</svg>